<svg xmlns="http://www.w3.org/2000/svg" xmlns:xlink="http://www.w3.org/1999/xlink" viewBox="0 0 103.63 103.04"><defs><style>.cls-1,.cls-2{fill:#f2f2f2;}.cls-1,.cls-13,.cls-4,.cls-5,.cls-6,.cls-7,.cls-8,.cls-9{stroke:#091019;}.cls-1,.cls-10,.cls-11,.cls-12,.cls-13,.cls-4,.cls-5,.cls-6,.cls-7,.cls-8,.cls-9{stroke-miterlimit:10;}.cls-1,.cls-13{stroke-width:3px;}.cls-3{clip-path:url(#clip-path);}.cls-4,.cls-6{fill:#99dce4;}.cls-4,.cls-7,.cls-8{stroke-width:0.5px;}.cls-10,.cls-11,.cls-12,.cls-5,.cls-7{fill:#091019;}.cls-5{stroke-width:0.5px;}.cls-6{stroke-width:0.59px;}.cls-8,.cls-9{fill:#fff;}.cls-9{stroke-width:0.51px;}.cls-10,.cls-11,.cls-12{stroke:#fff;}.cls-10{stroke-width:0.53px;}.cls-11{stroke-width:0.56px;}.cls-12{stroke-width:0.51px;}.cls-13{fill:none;}</style><clipPath id="clip-path"><circle class="cls-1" cx="51.5" cy="51.5" r="50"/></clipPath></defs><title>Asset 1</title><g id="Layer_2" data-name="Layer 2"><g id="Layer_1-2" data-name="Layer 1"><g id="Glucose_Test_Icon" data-name="Glucose Test Icon"><circle class="cls-2" cx="51.5" cy="51.5" r="50"/><g class="cls-3"><polygon class="cls-4" points="33.74 48.24 49.41 32.57 76.28 44.59 103.27 71.58 72.16 102.69 46.12 76.64 33.74 48.24"/><polygon class="cls-5" points="34.42 49.69 48.35 35.75 76.35 48.43 101.39 73.46 73.34 101.51 44.39 72.57 34.42 49.69"/><polygon class="cls-6" points="48.24 59.66 58.95 48.96 70.6 50.47 97.47 77.34 77.75 97.06 50.61 69.92 48.24 59.66"/><polygon class="cls-7" points="53.66 63.09 62.61 54.14 72.57 55.61 95.91 78.94 79.41 95.44 55.84 71.87 53.66 63.09"/><polygon class="cls-4" points="55.42 61.44 60.85 56.02 70.81 58.32 93.67 81.18 81.65 93.2 58.25 69.81 55.42 61.44"/><polygon class="cls-8" points="70.51 69.87 79.35 69.52 91.84 82.01 82.77 91.08 70.04 78.36 70.51 69.87"/><rect class="cls-9" x="58.87" y="56.26" width="5.5" height="11.22" transform="translate(148.94 62.04) rotate(135)"/><rect class="cls-10" x="46.1" y="48.82" width="10.95" height="5.5" transform="translate(124.5 51.57) rotate(135)"/><rect class="cls-11" x="37.36" y="40.5" width="11.58" height="5.3" transform="translate(104.18 43.16) rotate(135)"/><rect class="cls-12" x="41.51" y="44.17" width="11.56" height="6.25" transform="translate(114.18 47.3) rotate(135)"/></g><circle class="cls-13" cx="51.5" cy="51.5" r="50"/></g></g></g></svg>