<?xml version="1.0" encoding="utf-8"?>
<!-- Generator: Adobe Illustrator 21.0.1, SVG Export Plug-In . SVG Version: 6.00 Build 0)  -->
<svg version="1.1" id="Layer_1" xmlns="http://www.w3.org/2000/svg" xmlns:xlink="http://www.w3.org/1999/xlink" x="0px" y="0px"
	 viewBox="0 0 2880 1798" style="enable-background:new 0 0 2880 1798;" xml:space="preserve">
<style type="text/css">
	.st0{opacity:0.4;}
	.st1{fill:none;stroke:#091019;stroke-width:1.9234;}
	.st2{fill:none;enable-background:new    ;}
	.st3{fill:none;stroke:#091019;stroke-width:2;}
	.st4{fill:none;stroke:#091019;stroke-width:2.0008;}
	.st5{fill:none;stroke:#091019;stroke-width:2.0634;}
	.st6{fill:none;stroke:#091019;stroke-width:1.9585;}
</style>
<g id="Artboard_2">
	<g class="st0">
		<g>
			
				<image style="overflow:visible;" width="1582" height="839" xlink:href="181942A16B7352C2.png"  transform="matrix(1 0 0 1 38 74)">
			</image>
			<rect x="38" y="73.8" class="st1" width="1582.1" height="839.2"/>
		</g>
		<g>
			
				<image style="overflow:visible;" width="700" height="482" xlink:href="181942A16B7352C6.png"  transform="matrix(1 0 0 1 1365 94)">
			</image>
			<path class="st2" d="z"/>
			<rect x="1364" y="94" class="st3" width="702" height="482"/>
		</g>
		<g>
			
				<image style="overflow:visible;" width="745" height="638" xlink:href="181942A16B7352C1.png"  transform="matrix(1.0611 0 0 1.0098 2024 73.7778)">
			</image>
			<path class="st2" d="z"/>
			<rect x="2024" y="74" class="st3" width="792" height="642"/>
		</g>
		<g>
			
				<image style="overflow:visible;" width="678" height="353" xlink:href="181942A16B7352C3.png"  transform="matrix(1 0 0 1 1734 653)">
			</image>
			<path class="st2" d="z"/>
			<rect x="1732" y="653" class="st3" width="680" height="353"/>
		</g>
		<g>
			
				<image style="overflow:visible;" width="1438" height="770" xlink:href="181942A16B7352C0.png"  transform="matrix(0.995 0 0 0.9882 1381.2222 999)">
			</image>
			<path class="st2" d="z"/>
			<rect x="1381.9" y="999" class="st4" width="1430.1" height="765"/>
		</g>
		<g>
			
				<image style="overflow:visible;" width="1133" height="702" xlink:href="181942A16B7352CE.png"  transform="matrix(0.942 0 0 0.95 33.325 1099.55)">
			</image>
			<path class="st2" d="z"/>
			<rect x="38" y="1099" class="st5" width="1065.4" height="665"/>
		</g>
		<g>
			
				<image style="overflow:visible;" width="864" height="463" xlink:href="181942A16B7352C5.png"  transform="matrix(1 0 0 1 756 873)">
			</image>
			<path class="st2" d="z"/>
			<rect x="755" y="873.8" class="st6" width="866" height="462.2"/>
		</g>
	</g>
</g>
</svg>
