<svg xmlns="http://www.w3.org/2000/svg" xmlns:xlink="http://www.w3.org/1999/xlink" viewBox="0 0 104.35 108.26"><defs><style>.cls-1,.cls-2{fill:#f2f2f2;}.cls-1,.cls-4,.cls-5,.cls-6,.cls-7,.cls-8{stroke:#091019;stroke-miterlimit:10;}.cls-1,.cls-8{stroke-width:3px;}.cls-3{clip-path:url(#clip-path);}.cls-4{fill:#091019;}.cls-4,.cls-6{stroke-width:0.9px;}.cls-5,.cls-7,.cls-8{fill:none;}.cls-5{stroke-width:0.77px;}.cls-6{fill:#99dce4;}.cls-7{stroke-width:0.82px;}</style><clipPath id="clip-path"><circle class="cls-1" cx="51.5" cy="51.5" r="50"/></clipPath></defs><title>Asset 2</title><g id="Layer_2" data-name="Layer 2"><g id="Layer_1-2" data-name="Layer 1"><g id="Insulin_Intake_Log" data-name="Insulin Intake Log"><circle class="cls-2" cx="51.5" cy="51.5" r="50"/><g class="cls-3"><rect class="cls-4" x="43.64" y="53.5" width="18" height="6.75" transform="translate(-24.81 54.27) rotate(-45.29)"/><polygon class="cls-5" points="28.97 32.92 29.84 34.83 49.98 54.77 50.5 54.23 28.97 32.92"/><rect class="cls-6" x="61.63" y="51.02" width="26.25" height="55.5" transform="translate(-33.82 76.48) rotate(-45.29)"/><line class="cls-7" x1="51.67" y1="74.38" x2="62.22" y2="63.72"/><line class="cls-7" x1="55.78" y1="78.45" x2="62.11" y2="72.05"/><line class="cls-7" x1="59.89" y1="82.52" x2="66.22" y2="76.12"/><line class="cls-7" x1="64" y1="86.59" x2="70.33" y2="80.2"/><line class="cls-7" x1="68.11" y1="90.66" x2="74.45" y2="84.27"/><line class="cls-7" x1="72.23" y1="94.73" x2="82.78" y2="84.07"/><line class="cls-7" x1="76.34" y1="98.8" x2="82.67" y2="92.41"/><line class="cls-7" x1="80.45" y1="102.87" x2="86.78" y2="96.48"/></g><circle class="cls-8" cx="51.5" cy="51.5" r="50"/></g></g></g></svg>