<svg xmlns="http://www.w3.org/2000/svg" xmlns:xlink="http://www.w3.org/1999/xlink" viewBox="0 0 103 103"><defs><style>.cls-1,.cls-2{fill:#f2f2f2;}.cls-1,.cls-6{stroke:#091019;stroke-miterlimit:10;stroke-width:3px;}.cls-3{clip-path:url(#clip-path);}.cls-4{fill:#99dce4;}.cls-5{fill:#091019;}.cls-6{fill:none;}</style><clipPath id="clip-path"><circle class="cls-1" cx="51.5" cy="51.5" r="50"/></clipPath></defs><title>Asset 4</title><g id="Layer_2" data-name="Layer 2"><g id="Layer_1-2" data-name="Layer 1"><g id="Steps_Log" data-name="Steps Log"><circle class="cls-2" cx="51.5" cy="51.5" r="50"/><g class="cls-3"><path class="cls-4" d="M53.39,50.89c1.29.55,1,.42,1.43.6A17,17,0,0,1,60,55.34,17.57,17.57,0,0,1,62,57.87c.77,1.23.9,1.78,1.64,3a13.93,13.93,0,0,0,2.06,2.77c.39.38,3.44,3.25,7.43,2.6a8.71,8.71,0,0,0,4.33-2.19,9.9,9.9,0,0,0,2.21-2.73C81,58.25,78,54,72.09,45.91c-1.76-2.41-5-6.63-6.41-8.74-.14-.21-.8-1.19-1.76-2.48-.26-.35-.7-.93-1.19-1.55A36.43,36.43,0,0,0,59.86,30a28,28,0,0,0-4.5-3.67A21.52,21.52,0,0,0,50.73,24a16.44,16.44,0,0,0-10.29-.57A7,7,0,0,0,38,24.61,7.38,7.38,0,0,0,35.61,30a11.41,11.41,0,0,0,.18,1.61,20.85,20.85,0,0,0,.72,3.1,20.36,20.36,0,0,0,2.24,4.68,26.48,26.48,0,0,0,3.49,4.44,25.76,25.76,0,0,0,4.65,3.82c.56.35,1,.6,1.43.84A54.2,54.2,0,0,0,53.39,50.89Z"/><path class="cls-5" d="M40.36,32.25c-.49-2-.27-3.37.26-4a5.19,5.19,0,0,1,3.52-1.1,40.44,40.44,0,0,0,2.09-4.34c-3.83-.49-7.13.41-9.05,2.58-2.19,2.47-2,6.81.06,11.28a48.07,48.07,0,0,0,3.29-3.94C40.48,32.59,40.4,32.41,40.36,32.25Z"/><path class="cls-5" d="M51.42,29.25A36.74,36.74,0,0,0,53,25a21.75,21.75,0,0,0-5.08-1.85A42.22,42.22,0,0,1,46,27.32,17.14,17.14,0,0,1,51.42,29.25Z"/><path class="cls-5" d="M41.23,34.65Q39.75,36.52,38,38.3a26.35,26.35,0,0,0,3.68,5.06c1.08-1.08,2.07-2.2,3-3.34A21,21,0,0,1,41.23,34.65Z"/><path class="cls-5" d="M45.92,41.23c-.95,1.13-1.94,2.25-3,3.33a27.16,27.16,0,0,0,3.93,3.14c1.08-1.1,2.07-2.25,3-3.41A22.7,22.7,0,0,1,45.92,41.23Z"/><path class="cls-5" d="M56.56,33A34.83,34.83,0,0,0,58,28.35a28.76,28.76,0,0,0-3.59-2.55,37.58,37.58,0,0,1-1.59,4.3A25.4,25.4,0,0,1,56.56,33Z"/><path class="cls-5" d="M56.06,47.14c-.85-.36-1.74-.72-2.72-1.09a21.09,21.09,0,0,1-2-.92c-.94,1.17-1.93,2.34-3,3.46a25.18,25.18,0,0,0,3.43,1.64l1.39.54C54.19,49.59,55.16,48.37,56.06,47.14Z"/><path class="cls-5" d="M57.84,34.31a30.76,30.76,0,0,1,2.32,2.8c.31.43.58.84.87,1.26a35.39,35.39,0,0,0,1.73-5.18,33.87,33.87,0,0,0-3.31-3.59A37,37,0,0,1,57.84,34.31Z"/><path class="cls-5" d="M58.81,38.1C54.18,31.73,48.62,29.15,45,28.86a4.52,4.52,0,0,0-3.15.6A5.54,5.54,0,0,0,42,31.84c1.1,4.44,5.55,10.21,11.95,12.64,1.7.64,3.24,1.27,4.66,2a48.83,48.83,0,0,1-3.81,5l4.58-4.58A18,18,0,0,1,66.09,53l-4.2,4.88c.34.63.68,1.29,1,2.06C66.14,67.19,73.5,68.06,77.54,64c4.79-4.78,2.29-11-2.65-15.32A32.34,32.34,0,0,1,72.11,46l-4,4.7a56,56,0,0,1-5.46-7L67,39.22c-1-1.42-1.91-2.86-3-4.34a39.25,39.25,0,0,1-2.72,6.88C60.5,40.52,59.69,39.32,58.81,38.1Z"/><path class="cls-4" d="M62.73,74a20.29,20.29,0,0,0,4.65,6.68A13.12,13.12,0,0,0,70,82.84c1.15.7,1.72.76,3,1.46a13,13,0,0,1,2.77,2.06c.38.39,3.25,3.44,2.6,7.43a8.49,8.49,0,0,1-2.19,4.33,9.18,9.18,0,0,1-2.88,2.12c-4,1.6-9.72-2.93-15.27-7.34-.47-.37-4.21-3.36-6.74-5.07l-2.06-1.4c-1.44-1-1.9-1.3-2.54-1.76s-1.05-.76-1.7-1.28A33.44,33.44,0,0,1,42.24,81a24.79,24.79,0,0,1-3.79-4.62A30.92,30.92,0,0,1,37,73.62a20.69,20.69,0,0,1-1.52-3.55,16,16,0,0,1-.6-3.28,11.72,11.72,0,0,1,.6-5.67A7.09,7.09,0,0,1,37.56,58,7.38,7.38,0,0,1,42,56.5a11.26,11.26,0,0,1,1.67.12,18.41,18.41,0,0,1,3.1.66,21.16,21.16,0,0,1,4.65,2.15A23.19,23.19,0,0,1,55.93,63a29.46,29.46,0,0,1,3.76,4.65c.77,1.18,1.25,2.1,1.37,2.33A36.05,36.05,0,0,1,62.73,74Z"/><path class="cls-5" d="M40.3,61.44c.59-.53,2-.75,4-.26.17,0,.34.12.51.17a48.21,48.21,0,0,0,3.93-3.28c-4.46-2-8.81-2.25-11.28-.06-2.16,1.92-3.07,5.22-2.58,9.05A40.17,40.17,0,0,0,39.21,65,5.18,5.18,0,0,1,40.3,61.44Z"/><path class="cls-5" d="M46.67,62A21,21,0,0,1,52,65.56c1.13-.94,2.25-1.93,3.33-3a26.63,26.63,0,0,0-5.06-3.68Q48.54,60.58,46.67,62Z"/><path class="cls-5" d="M39.34,66.8a41.39,41.39,0,0,1-4.2,1.92A21.9,21.9,0,0,0,37,73.79a36.26,36.26,0,0,0,4.28-1.55A17.23,17.23,0,0,1,39.34,66.8Z"/><path class="cls-5" d="M42.13,73.69a37.94,37.94,0,0,1-4.32,1.59,28.52,28.52,0,0,0,2.55,3.59A34.32,34.32,0,0,0,45,77.38,25,25,0,0,1,42.13,73.69Z"/><path class="cls-5" d="M56.31,70.67c1.16-.94,2.3-1.92,3.4-3a26.77,26.77,0,0,0-3.14-3.93c-1.07,1.07-2.19,2.06-3.32,3A22.43,22.43,0,0,1,56.31,70.67Z"/><path class="cls-5" d="M49.13,81a30.22,30.22,0,0,1-2.79-2.32,37.15,37.15,0,0,1-4.72,1.62,34.17,34.17,0,0,0,3.59,3.31,35.09,35.09,0,0,0,5.19-1.74C50,81.56,49.56,81.29,49.13,81Z"/><path class="cls-5" d="M58.07,74.16c.37,1,.73,1.86,1.09,2.72C60.39,76,61.6,75,62.78,74c-.18-.45-.36-.89-.54-1.39a25,25,0,0,0-1.64-3.43c-1.12,1.07-2.28,2.06-3.45,3A19.6,19.6,0,0,1,58.07,74.16Z"/><path class="cls-5" d="M69.85,82.72,65,86.91a18,18,0,0,1-6.08-6.71l4.58-4.58a48.47,48.47,0,0,1-5,3.8c-.7-1.42-1.33-3-2-4.67-2.42-6.4-8.19-10.85-12.63-11.95a4.13,4.13,0,0,0-2.48-.09,4.85,4.85,0,0,0-.5,3.06c.29,3.66,2.87,9.22,9.24,13.85,1.25.91,2.47,1.72,3.67,2.53a39.52,39.52,0,0,1-6.89,2.73c1.48,1.06,2.92,2,4.34,3l4.43-4.43a55.82,55.82,0,0,1,7,5.46l-4.71,4a32.54,32.54,0,0,1,2.76,2.78C65,100.66,71.27,103.17,76,98.37c4-4,3.16-11.4-4.13-14.63C71.14,83.4,70.48,83.06,69.85,82.72Z"/></g><circle class="cls-6" cx="51.5" cy="51.5" r="50"/></g></g></g></svg>