<svg xmlns="http://www.w3.org/2000/svg" xmlns:xlink="http://www.w3.org/1999/xlink" viewBox="0 0 107.05 107.96"><defs><style>.cls-1,.cls-2{fill:#f2f2f2;}.cls-1,.cls-4,.cls-6,.cls-7,.cls-8,.cls-9{stroke:#091019;stroke-miterlimit:10;}.cls-1,.cls-9{stroke-width:3px;}.cls-3{clip-path:url(#clip-path);}.cls-4{fill:#fff;}.cls-4,.cls-6{stroke-width:1.32px;}.cls-5{fill:#99dce4;}.cls-6,.cls-7,.cls-9{fill:none;}.cls-7{stroke-width:2.16px;}.cls-8{fill:#091019;stroke-width:1.51px;}</style><clipPath id="clip-path"><circle class="cls-1" cx="51.5" cy="51.5" r="50"/></clipPath></defs><title>Asset 3</title><g id="Layer_2" data-name="Layer 2"><g id="Layer_1-2" data-name="Layer 1"><g id="Water_Intake_Log" data-name="Water Intake Log"><circle class="cls-2" cx="51.5" cy="51.5" r="50"/><g class="cls-3"><polygon class="cls-4" points="106.11 77.1 76.19 107.03 38.96 69.8 39.25 46.71 45.8 40.16 68.82 39.81 106.11 77.1"/><polygon class="cls-5" points="106.11 77.1 76.19 107.03 38.96 69.8 39.14 55.09 68.82 39.81 106.11 77.1"/><polygon class="cls-6" points="106.11 77.1 76.19 107.03 38.96 69.8 39.25 46.71 45.8 40.16 68.82 39.81 106.11 77.1"/><line class="cls-7" x1="44.16" y1="75" x2="74.08" y2="45.08"/><line class="cls-7" x1="48.83" y1="79.68" x2="78.76" y2="49.75"/><line class="cls-7" x1="53.51" y1="84.35" x2="83.43" y2="54.43"/><line class="cls-7" x1="58.19" y1="89.03" x2="88.11" y2="59.1"/><rect class="cls-8" x="34.15" y="35.4" width="9.26" height="8.6" transform="translate(-16.71 39.05) rotate(-45)"/></g><circle class="cls-9" cx="51.5" cy="51.5" r="50"/></g></g></g></svg>