<?xml version="1.0" standalone="no"?>
<!DOCTYPE svg PUBLIC "-//W3C//DTD SVG 20010904//EN"
 "http://www.w3.org/TR/2001/REC-SVG-20010904/DTD/svg10.dtd">
<svg version="1.0" xmlns="http://www.w3.org/2000/svg"
 width="554.000000pt" height="554.000000pt" viewBox="0 0 554.000000 554.000000"
 preserveAspectRatio="xMidYMid meet">
<metadata>
Created by potrace 1.11, written by Peter Selinger 2001-2013
</metadata>
<g transform="translate(0.000000,554.000000) scale(0.100000,-0.100000)"
fill="#000000" stroke="none">
<path d="M1503 4522 c-545 -733 -754 -1045 -954 -1427 -201 -383 -289 -675
-289 -955 0 -671 443 -1277 1080 -1478 188 -59 244 -67 490 -67 211 1 233 3
344 29 l119 28 86 -21 c138 -33 206 -41 371 -41 165 0 233 8 371 41 l86 21
119 -28 c111 -26 133 -28 344 -29 246 0 302 8 490 67 634 200 1080 808 1080
1473 0 278 -74 531 -266 915 -202 403 -432 750 -1006 1522 -145 195 -270 365
-279 378 -9 14 -19 23 -21 20 -2 -3 -40 -54 -83 -115 -44 -60 -146 -199 -227
-308 l-147 -199 -188 254 c-104 139 -207 279 -228 310 -22 32 -42 57 -45 58
-3 0 -11 -10 -19 -22 -31 -50 -433 -588 -439 -588 -7 1 -435 583 -440 600 -2
6 -7 10 -10 9 -4 0 -157 -201 -339 -447z"/>
</g>
</svg>
